<svg width="600" height="600" xmlns="http://www.w3.org/2000/svg">
 <g>
  <title>Layer 1</title>
  <text fill="#ffffff" stroke-width="0" x="189.81877" y="175.82274" id="svg_1" font-size="24" font-family="'Assistant'" text-anchor="start" xml:space="preserve" stroke="#000" transform="matrix(36.0853 0 0 18.8361 -6848.08 -2831.72)" font-style="italic" font-weight="normal">E</text>
  <path fill="#ffffff" stroke-width="0" d="m280.20663,93.82304c8.45211,0.00973 16.52658,1.3428 24.17347,3.56983l-6.05196,9.53449l42.95913,0l-10.74253,-16.94692l-10.73433,-16.94186l-5.65064,8.92727c-10.59019,-3.52684 -22.00682,-5.50066 -33.94544,-5.50066c-54.9526,0 -99.49341,40.57499 -99.49341,90.6314c0,20.77505 7.757,39.86278 20.66636,55.15594l15.12849,-10.58073c-10.44073,-12.35897 -16.71827,-27.78125 -16.75233,-44.5702c0.07604,-40.46994 36.0204,-73.2165 80.44318,-73.27856l0.00001,0zm78.83754,18.13673l-15.12846,10.5858c10.4381,12.35427 16.71567,27.76682 16.74439,44.56077c-0.07605,40.46961 -36.0204,73.21149 -80.44577,73.27818c-7.87244,-0.00927 -15.40393,-1.1753 -22.58386,-3.12532l5.6951,-8.97054l-42.95893,0l10.73458,16.93755l10.74233,16.96091l5.98901,-9.46731c10.15731,3.22097 21.02815,5.01793 32.38178,5.0226c54.96053,-0.00933 99.4937,-40.58436 99.50661,-90.6408c-0.01291,-20.77501 -7.77543,-39.85808 -20.67678,-55.14182l0,-0.00001l0,-0.00001z" id="svg_2" stroke="#000" stroke-dasharray="5,2,2,2,2,2"/>
 </g>

</svg>